<?xml version="1.0" standalone="no"?>
<!DOCTYPE svg PUBLIC "-//W3C//DTD SVG 20010904//EN"
 "http://www.w3.org/TR/2001/REC-SVG-20010904/DTD/svg10.dtd">
<svg version="1.0" xmlns="http://www.w3.org/2000/svg"
 width="700.000000pt" height="700.000000pt" viewBox="0 0 700.000000 700.000000"
 preserveAspectRatio="xMidYMid meet">
<metadata>
Created by potrace 1.11, written by Peter Selinger 2001-2013
</metadata>
<g transform="translate(0.000000,700.000000) scale(0.100000,-0.100000)"
fill="#000000" stroke="none">
<path d="M4680 4864 c-14 -3 -63 -12 -110 -21 -270 -50 -523 -194 -700 -398
-61 -70 -145 -202 -187 -293 -21 -44 -38 -71 -41 -62 -13 42 -87 178 -133 247
-63 93 -180 212 -270 276 -114 80 -284 157 -419 188 -149 35 -225 39 -777 39
l-553 0 0 -1340 0 -1340 490 0 490 0 0 75 0 75 -392 2 -393 3 -3 1183 -2 1182
457 0 c483 0 535 -4 676 -45 317 -91 539 -307 655 -635 53 -150 67 -247 82
-545 14 -297 57 -474 165 -684 67 -130 130 -214 233 -312 160 -154 351 -253
582 -304 103 -22 357 -31 473 -16 298 40 523 144 725 335 l42 40 -47 48 c-26
26 -55 48 -64 48 -9 0 -52 -30 -95 -66 -190 -158 -370 -228 -628 -242 -267
-15 -434 17 -633 123 -300 159 -497 475 -544 873 -16 135 -6 412 20 527 97
441 380 743 790 845 234 59 564 35 768 -55 32 -14 108 -60 169 -101 61 -40
121 -74 132 -74 21 0 91 81 92 105 0 16 -132 115 -223 168 -189 110 -339 147
-612 152 -104 2 -201 1 -215 -1z"/>
</g>
</svg>
